<svg t="1673106080816" class="icon" viewBox="0 0 1024
		            1024" version="1.1" xmlns="http://www.w3.org/2000/svg" p-id="6718" width="30" height="30">
				<path d="M206.894545 497.803636L151.272727 442.181818a550.4 550.4 0 0 1 777.076364 0l-55.621818
		                55.621818a471.738182 471.738182 0 0 0-665.832728 0z" fill="#579BB1" p-id="6719"></path>
				<path d="M309.527273 600.669091l-55.389091-55.389091a404.48 404.48 0 0 1 571.345454 0l-55.621818
		                55.389091a325.818182 325.818182 0 0 0-460.334545 0z" fill="#9FC9EB" p-id="6720"></path>
				<path d="M412.625455 703.767273l-55.389091-55.621818a258.792727 258.792727 0 0 1 365.149091 0l-55.389091
		                55.621818a180.130909 180.130909 0 0 0-254.370909 0zM580.189091 817.338182a57.018182 57.018182 0 1 1
		                0-80.756364 57.018182 57.018182 0 0 1 0 80.756364z" fill="#579BB1" p-id="6721"></path>
			</svg>