<svg width="24.000000" height="23.774170" viewBox="0 0 24 23.7742" fill="none" xmlns="http://www.w3.org/2000/svg" xmlns:xlink="http://www.w3.org/1999/xlink">
	<desc>
			Created with Pixso.
	</desc>
	<defs>
		<linearGradient id="paint_linear_43_171_0" x1="5.000000" y1="0.047364" x2="17.500002" y2="23.774170" gradientUnits="userSpaceOnUse">
			<stop stop-color="#26B63E"/>
			<stop offset="1.000000" stop-color="#26B63E"/>
		</linearGradient>
	</defs>
	<path id="path" d="M13.2891 0.456055L22.5518 7.00708C23.5172 7.68994 24 8.6167 24 9.78735L24 20.3513C24 22.2417 22.4447 23.7742 20.5264 23.7742L15.7894 23.7742L15.7894 18.7954C15.7894 16.7334 14.0928 15.0615 12 15.0615C9.90723 15.0615 8.21057 16.7334 8.21057 18.7954L8.21057 23.7742L3.47363 23.7742C1.5553 23.7742 0 22.2417 0 20.3513L0 9.7876C0 8.6167 0.482788 7.6897 1.44824 7.00708L10.7109 0.456055C11.5703 -0.151855 12.4297 -0.151855 13.2891 0.456055Z" fill-rule="evenodd" fill="url(#paint_linear_43_171_0)"/>
</svg>
