<?xml version="1.0" standalone="no"?><!DOCTYPE svg PUBLIC "-//W3C//DTD SVG 1.1//EN" "http://www.w3.org/Graphics/SVG/1.1/DTD/svg11.dtd"><svg t="1762829634672" class="icon" viewBox="0 0 1024 1024" version="1.1" xmlns="http://www.w3.org/2000/svg" p-id="30957" width="48" height="48" xmlns:xlink="http://www.w3.org/1999/xlink"><path d="M380.705 571.991c44.475 0 80.53 36.032 80.53 80.48v200.05c0 44.447-36.055 80.479-80.53 80.479H180.53c-44.475 0-80.53-36.032-80.53-80.48V652.47c0-44.447 36.055-80.479 80.53-80.479h200.175z m441.765 0c44.475 0 80.53 36.032 80.53 80.48v200.05C903 896.967 866.945 933 822.47 933H622.295c-44.475 0-80.53-36.032-80.53-80.48V652.47c0-44.447 36.055-80.479 80.53-80.479H822.47z m-441.765 59.785H180.53c-11.232 0-20.376 8.938-20.699 20.085l-0.009 0.61v200.05c0 11.225 8.943 20.363 20.098 20.685l0.61 0.01h200.175c11.232 0 20.376-8.938 20.699-20.085l0.009-0.61V652.47c0-11.225-8.943-20.363-20.098-20.686l-0.61-0.009z m441.765 0H622.295c-11.232 0-20.376 8.938-20.699 20.085l-0.009 0.61v200.05c0 11.225 8.943 20.363 20.098 20.685l0.61 0.01H822.47c11.232 0 20.376-8.938 20.699-20.085l0.009-0.61V652.47c0-11.225-8.943-20.363-20.098-20.686l-0.61-0.009zM722.383 142C822.135 142 903 222.815 903 322.504c0 99.69-80.865 180.505-180.617 180.505-99.753 0-180.618-80.815-180.618-180.505S622.63 142 722.383 142z m-341.678 0c44.475 0 80.53 36.032 80.53 80.48v200.05c0 44.447-36.055 80.479-80.53 80.479H180.53c-44.475 0-80.53-36.032-80.53-80.48V222.48C100 178.033 136.055 142 180.53 142h200.175z m341.678 59.785c-66.714 0-120.796 54.048-120.796 120.72 0 66.67 54.082 120.719 120.796 120.719 66.713 0 120.795-54.048 120.795-120.72 0-66.671-54.082-120.72-120.795-120.72z m-341.678 0H180.53c-11.232 0-20.376 8.937-20.699 20.084l-0.009 0.61v200.05c0 11.225 8.943 20.363 20.098 20.686l0.61 0.009h200.175c11.232 0 20.376-8.938 20.699-20.085l0.009-0.61V222.48c0-11.225-8.943-20.363-20.098-20.685l-0.61-0.01z" fill="#ffffff" p-id="30958"></path></svg>