<svg t="1689833313554" class="icon" viewBox="0 0 1024 1024" version="1.1" xmlns="http://www.w3.org/2000/svg" p-id="3154"
     width="200" height="200">
    <path d="M733.866667 318.577778c0 22.755556 17.066667 39.822222 39.822222 39.822222h210.488889c11.377778 0 22.755556-5.688889 28.444444-11.377778 5.688889-5.688889 11.377778-17.066667 11.377778-28.444444V125.155556c0-22.755556-22.755556-39.822222-39.822222-39.822223-22.755556 0-39.822222 17.066667-39.822222 39.822223V227.555556l-11.377778-17.066667C830.577778 79.644444 676.977778 0 512 0 227.555556 0 0 227.555556 0 512s227.555556 512 512 512 512-227.555556 512-512c0-22.755556-22.755556-39.822222-39.822222-39.822222-22.755556 0-39.822222 17.066667-39.822222 39.822222 0 233.244444-193.422222 426.666667-426.666667 426.666667S91.022222 745.244444 91.022222 512 284.444444 85.333333 517.688889 85.333333c136.533333 0 267.377778 68.266667 347.022222 182.044445l5.688889 11.377778h-96.711111c-22.755556 0-39.822222 17.066667-39.822222 39.822222z"
          p-id="3155" fill="#1296db"></path>
    <path d="M415.288889 369.777778c-11.377778-11.377778-17.066667-11.377778-22.755556-11.377778-11.377778 0-17.066667 5.688889-22.755555 11.377778-22.755556 17.066667-34.133333 39.822222-45.511111 62.577778-11.377778 22.755556-17.066667 51.2-17.066667 79.644444s5.688889 56.888889 17.066667 79.644444c11.377778 22.755556 22.755556 45.511111 45.511111 62.577778 17.066667 17.066667 39.822222 34.133333 62.577778 45.511111 22.755556 11.377778 51.2 17.066667 79.644444 17.066667 28.444444 0 56.888889-5.688889 79.644444-17.066667 22.755556-11.377778 45.511111-22.755556 62.577778-45.511111 17.066667-17.066667 34.133333-39.822222 45.511111-62.577778 11.377778-22.755556 17.066667-51.2 17.066667-79.644444s-5.688889-56.888889-17.066667-79.644444c-11.377778-22.755556-22.755556-45.511111-45.511111-62.577778-5.688889-5.688889-11.377778-11.377778-22.755555-11.377778s-17.066667 5.688889-22.755556 11.377778c-11.377778 11.377778-11.377778 34.133333 0 45.511111 28.444444 28.444444 39.822222 62.577778 39.822222 96.711111 0 79.644444-62.577778 142.222222-142.222222 142.222222S364.088889 591.644444 364.088889 512c0-39.822222 17.066667-73.955556 39.822222-96.711111 22.755556-17.066667 22.755556-34.133333 11.377778-45.511111z"
          p-id="3156" fill="#1296db"></path>
    <path d="M546.133333 523.377778V341.333333c0-17.066667-17.066667-34.133333-34.133333-34.133333s-34.133333 17.066667-34.133333 34.133333v182.044445c0 17.066667 17.066667 34.133333 34.133333 34.133333 17.066667-5.688889 34.133333-17.066667 34.133333-34.133333z"
          p-id="3157" fill="#1296db"></path>
</svg>
