<?xml version="1.0" standalone="no"?><!DOCTYPE svg PUBLIC "-//W3C//DTD SVG 1.1//EN" "http://www.w3.org/Graphics/SVG/1.1/DTD/svg11.dtd"><svg t="1751965531372" class="icon" viewBox="0 0 1024 1024" version="1.1" xmlns="http://www.w3.org/2000/svg" p-id="8231" xmlns:xlink="http://www.w3.org/1999/xlink" width="48" height="48"><path d="M101.08416 151.77728l50.688-50.688 771.49184 771.49696-50.688 50.688zM311.808 391.68V476.16c0 112.64 91.136 203.776 203.776 203.776 25.088 0 49.152-4.608 71.68-12.8l-59.392-59.392c-4.096 0.512-8.192 0.512-12.288 0.512-72.704 0-132.096-59.392-132.096-132.096v-12.8l-71.68-71.68zM383.488 283.136c0-73.216 58.88-132.096 132.096-132.096 72.704 0 132.096 59.392 132.096 132.096V476.16c0 26.112-7.68 50.688-20.992 71.168l51.712 51.712c25.6-34.304 40.96-76.8 40.96-122.368V283.136c0-112.64-91.648-203.776-203.776-203.776-96.768 0-177.664 67.584-198.656 158.208l66.56 66.56v-20.992z" p-id="8232" fill="#8a8a8a"></path><path d="M515.072 755.712c-148.992 0-270.336-121.344-270.336-270.336v-22.528h-71.68v22.528c0 177.152 134.144 322.56 306.688 339.968v124.416h71.68v-124.416c52.736-5.632 101.888-23.04 144.384-49.664l-52.224-52.224c-38.4 20.48-81.92 32.256-128.512 32.256zM857.088 485.376v-22.528h-71.68v22.528c0 61.952-20.992 118.784-55.808 164.352l51.2 51.2c47.616-58.88 76.288-133.632 76.288-215.552z" p-id="8233" fill="#8a8a8a"></path></svg>