<?xml version="1.0" standalone="no"?><!DOCTYPE svg PUBLIC "-//W3C//DTD SVG 1.1//EN" "http://www.w3.org/Graphics/SVG/1.1/DTD/svg11.dtd"><svg t="1757573847335" class="icon" viewBox="0 0 1024 1024" version="1.1" xmlns="http://www.w3.org/2000/svg" p-id="20648" xmlns:xlink="http://www.w3.org/1999/xlink" width="48" height="48"><path d="M768 160a32 32 0 0 1 64 0v68.032a128 128 0 0 1-0.256 248c0.192 1.28 0.256 2.688 0.256 4.032v382.912a32 32 0 1 1-64 0V480.064c0-1.344 0.064-2.688 0.256-4.032A128 128 0 0 1 768 228.032V160z m96 192a64 64 0 1 0-128 0 64 64 0 0 0 128 0zM192 864.064V475.968a128 128 0 0 1 0-247.936V160a32 32 0 0 1 64 0v68.032a128 128 0 0 1 0 247.936v388.096a32 32 0 1 1-64 0zM160 352a64 64 0 1 0 128 0 64 64 0 0 0-128 0z m384-192a32 32 0 0 0-64 0v388.032a128 128 0 0 0 0 247.936v67.968a32 32 0 0 0 64 0v-67.968a128 128 0 0 0 0-247.936V160z m32 512a64 64 0 1 1-128 0 64 64 0 0 1 128 0z" fill="#03b5f6" p-id="20649"></path></svg>