<?xml version="1.0" standalone="no"?><!DOCTYPE svg PUBLIC "-//W3C//DTD SVG 1.1//EN" "http://www.w3.org/Graphics/SVG/1.1/DTD/svg11.dtd"><svg t="1751278426719" class="icon" viewBox="0 0 1024 1024" version="1.1" xmlns="http://www.w3.org/2000/svg" p-id="13011" xmlns:xlink="http://www.w3.org/1999/xlink" width="256" height="256"><path d="M512 0C230.4 0 0 230.4 0 512s230.4 512 512 512 512-230.4 512-512S793.6 0 512 0z m0 952.32c-240.64 0-440.32-199.68-440.32-440.32S271.36 71.68 512 71.68s440.32 199.68 440.32 440.32c0 240.64-199.68 440.32-440.32 440.32z" p-id="13012" fill="#1296db"></path><path d="M773.12 404.48h-10.24l-76.8 20.48c-20.48 5.12-30.72 25.6-25.6 46.08 5.12 15.36 20.48 25.6 35.84 25.6h10.24l76.8-20.48c20.48-5.12 30.72-25.6 25.6-46.08-5.12-15.36-20.48-25.6-35.84-25.6z" p-id="13013" fill="#1296db"></path><path d="M424.96 394.24C414.72 368.64 409.6 337.92 409.6 307.2c0-30.72 5.12-61.44 15.36-87.04-163.84 51.2-256 220.16-204.8 384s220.16 256 384 204.8c97.28-30.72 174.08-107.52 204.8-204.8-163.84 46.08-337.92-46.08-384-209.92z m87.04 353.28c-128 0-235.52-107.52-235.52-235.52 0-61.44 20.48-117.76 61.44-158.72 20.48 174.08 158.72 312.32 332.8 332.8-40.96 40.96-97.28 61.44-158.72 61.44z" p-id="13014" fill="#1296db"></path><path d="M552.96 363.52h10.24c15.36 0 30.72-10.24 35.84-25.6l15.36-76.8c5.12-20.48-5.12-40.96-25.6-46.08h-10.24c-15.36 0-30.72 10.24-35.84 25.6l-20.48 76.8c0 20.48 10.24 40.96 30.72 46.08z" p-id="13015" fill="#1296db"></path></svg>
