<?xml version="1.0" standalone="no"?><!DOCTYPE svg PUBLIC "-//W3C//DTD SVG 1.1//EN" "http://www.w3.org/Graphics/SVG/1.1/DTD/svg11.dtd"><svg t="1751278385979" class="icon" viewBox="0 0 1024 1024" version="1.1" xmlns="http://www.w3.org/2000/svg" p-id="12795" xmlns:xlink="http://www.w3.org/1999/xlink" width="256" height="256"><path d="M805.61706 393.240491a22.895 22.895 0 0 0-22.391813-1.257967L704.979698 429.721535v-58.872857A43.274066 43.274066 0 0 0 662.712006 327.071426H254.124317a43.274066 43.274066 0 0 0-43.274065 43.274065V679.302192a43.274066 43.274066 0 0 0 43.274065 43.022472h408.587689A43.274066 43.274066 0 0 0 704.979698 679.302192v-58.872857l77.490769 37.739011a23.64978 23.64978 0 0 0 22.391813-1.257967 22.895 22.895 0 0 0 10.818516-19.624286v-224.421316a22.895 22.895 0 0 0-10.063736-19.624286zM788.760302 628.983511l-73.465274-35.223077A16.856758 16.856758 0 0 1 704.979698 578.66483a14.089231 14.089231 0 0 0-14.089231-14.08923 14.089231 14.089231 0 0 0-14.08923 14.08923v100.637362a15.598791 15.598791 0 0 1-15.095605 15.095604h-407.581315a15.095604 15.095604 0 0 1-15.095604-15.095604V370.848678a14.592417 14.592417 0 0 1 15.095604-15.095604h408.587689a15.095604 15.095604 0 0 1 15.095604 15.095604v100.637362a14.089231 14.089231 0 1 0 28.178462 0 16.856758 16.856758 0 0 1 9.308956-15.095604l73.465274-35.726264z" fill="#1296db" p-id="12796"></path><path d="M597.046128 559.292138h-1.257967a73.465274 73.465274 0 0 1-75.478022-125.796702 18.366319 18.366319 0 0 0 8.050989-20.630659 18.617912 18.617912 0 0 0-17.611538-13.586044h-2.012747a125.796702 125.796702 0 0 0-90.070439 215.615547A125.796702 125.796702 0 0 0 508.736843 654.142851h9.057362a127.306263 127.306263 0 0 0 103.656483-68.684999 18.114725 18.114725 0 0 0-3.773901-21.637033 18.366319 18.366319 0 0 0-20.630659-4.528681z m-81.26467 65.665879a98.624615 98.624615 0 0 1-35.726264-192.720548 100.637362 100.637362 0 0 0 7.547803 137.118405 100.637362 100.637362 0 0 0 79.000329 28.430055 89.315659 89.315659 0 0 0 12.57967-1.509561 98.876208 98.876208 0 0 1-63.401538 28.681649zM327.589591 390.22137A38.242197 38.242197 0 1 0 365.328602 427.708788a38.242197 38.242197 0 0 0-37.739011-37.487418z m0 56.105329a18.114725 18.114725 0 1 1 17.863132-17.863131 17.863132 17.863132 0 0 1-17.863132 17.863131z" fill="#1296db" p-id="12797"></path><path d="M512.25915 0a511.992578 511.992578 0 1 0 511.740985 511.740985A512.495765 512.495765 0 0 0 512.25915 0z m0 998.574222a486.833238 486.833238 0 1 1 486.581644-486.833237 487.336424 487.336424 0 0 1-486.581644 486.833237z" fill="#1296db" p-id="12798"></path></svg>