<?xml version="1.0" standalone="no"?><!DOCTYPE svg PUBLIC "-//W3C//DTD SVG 1.1//EN" "http://www.w3.org/Graphics/SVG/1.1/DTD/svg11.dtd"><svg t="1757389548198" class="icon" viewBox="0 0 1024 1024" version="1.1" xmlns="http://www.w3.org/2000/svg" p-id="1532" width="32" height="32" xmlns:xlink="http://www.w3.org/1999/xlink"><path d="M 510.977 1024 A 509.404 509.404 0 0 1 2.15028 515.173 a 29.422 29.422 0 0 1 28.8451 -28.8451 a 28.8451 28.8451 0 0 1 28.8451 28.8451 a 451.714 451.714 0 1 0 111.342 -296.527 c -10.9611 12.6918 -20.7685 25.3837 -30.5758 38.6524 a 28.8451 28.8451 0 0 1 -39.8062 7.49972 a 29.422 29.422 0 0 1 -7.49972 -40.3831 c 10.9611 -14.9994 22.4992 -29.422 34.6141 -43.8445 a 508.827 508.827 0 1 1 383.063 843.43 Z" fill="#8a8a8a" p-id="1533"></path><path d="M 318.869 287.297 H 90.9931 a 28.8451 28.8451 0 0 1 -26.5375 -27.6913 v -230.761 a 28.8451 28.8451 0 0 1 57.6901 0 v 200.762 h 196.723 a 29.422 29.422 0 0 1 28.8451 28.8451 a 28.8451 28.8451 0 0 1 -28.8451 28.8451 Z M 397.905 765.548 a 29.422 29.422 0 0 1 -14.4225 -3.46141 a 28.8451 28.8451 0 0 1 -14.4225 -25.3837 V 337.487 a 28.8451 28.8451 0 0 1 41.5369 -25.3837 l 346.141 200.185 a 28.2682 28.2682 0 0 1 0 49.6135 l -346.141 200.185 a 32.8834 32.8834 0 0 1 -12.6918 3.46141 Z m 28.8451 -378.447 v 299.989 l 259.606 -149.994 Z" fill="#8a8a8a" p-id="1534"></path></svg>