<?xml version="1.0" standalone="no"?><!DOCTYPE svg PUBLIC "-//W3C//DTD SVG 1.1//EN" "http://www.w3.org/Graphics/SVG/1.1/DTD/svg11.dtd"><svg t="1750990368957" class="icon" viewBox="0 0 1024 1024" version="1.1" xmlns="http://www.w3.org/2000/svg" p-id="8990" xmlns:xlink="http://www.w3.org/1999/xlink" width="48" height="48"><path d="M2.688615 511.971702a509.368264 509.368264 0 1 1 509.368264 512.028298 511.292544 511.292544 0 0 1-509.368264-512.028298z m83.479799 0a425.945062 425.945062 0 1 0 425.888465-428.605096 427.812745 427.812745 0 0 0-425.945061 428.605096z m285.642403 241.666943h280.548721l-140.302659 164.016581z m85.800255-112.287404a138.491571 138.491571 0 0 1-44.598022-29.996131 144.717183 144.717183 0 0 1-30.052727-44.598022 140.076273 140.076273 0 0 1 0-109.28779 140.302658 140.302658 0 0 1 74.594152-74.650749 140.981816 140.981816 0 0 1 114.60786 2.207262 141.88736 141.88736 0 0 1 46.975073 36.10855c4.8107-3.565578 8.82905-6.621787 12.055049-9.225225l6.112419-4.867297a14.828276 14.828276 0 0 1 4.074946-2.320455 5.659647 5.659647 0 0 1 4.074946 0 7.357542 7.357542 0 0 1 3.282596 3.282595 21.280274 21.280274 0 0 1 2.037473 7.470735c0 1.867684 0.396175 5.037086 0.622561 9.508208l0.622561 15.620626c0.226386 5.94263 0.282982 12.055049 0.282982 18.450451s0 12.394628-0.282982 18.054275a21.959432 21.959432 0 0 1-4.98049 15.281048 11.319295 11.319295 0 0 1-7.527331 2.829824 37.183883 37.183883 0 0 1-10.640137-0.962141l-18.62024-4.074946a526.12082 526.12082 0 0 1-35.712374-8.885646 68.481733 68.481733 0 0 1-8.942243-2.943017c-3.508981-1.641298-5.150279-3.905157-4.810701-6.678384a9.451611 9.451611 0 0 1 3.622175-6.791576c0.622561-0.396175 2.660034-2.037473 6.112419-4.810701s7.640524-6.225612 12.67761-10.187365a96.214005 96.214005 0 0 0-31.524236-23.60073 91.346709 91.346709 0 0 0-39.617532-8.546067 93.157796 93.157796 0 0 0-36.957497 7.357542 94.176532 94.176532 0 0 0-50.257669 50.201072 95.138672 95.138672 0 0 0 0 73.575416 94.176532 94.176532 0 0 0 50.257669 50.144475 95.81783 95.81783 0 0 0 67.915769 2.207263 94.742497 94.742497 0 0 0 26.656939-14.545294 97.289338 97.289338 0 0 0 20.657713-22.016028 90.554358 90.554358 0 0 0 12.67761-27.732272 23.770519 23.770519 0 0 1 8.149892-11.88526 22.299011 22.299011 0 0 1 14.092522-4.754104 22.072625 22.072625 0 0 1 16.469574 6.90477 22.63859 22.63859 0 0 1 6.791577 16.299785 23.657326 23.657326 0 0 1-1.584702 8.376278 140.642237 140.642237 0 0 1-19.41259 40.353286 138.944343 138.944343 0 0 1-30.505499 31.750621 144.60399 144.60399 0 0 1-39.33455 20.827503 142.170342 142.170342 0 0 1-100.232355-3.452385z m277.945282-272.229039L899.516339 509.368264l-164.129774 140.302658zM114.183669 509.368264l164.129774-140.302659v280.548721z m257.570552-213.085724l140.302658-164.016581 140.302659 164.129774z" fill="#bfbfbf" p-id="8991"></path></svg>