<?xml version="1.0" standalone="no"?><!DOCTYPE svg PUBLIC "-//W3C//DTD SVG 1.1//EN" "http://www.w3.org/Graphics/SVG/1.1/DTD/svg11.dtd"><svg t="1757574017386" class="icon" viewBox="0 0 1024 1024" version="1.1" xmlns="http://www.w3.org/2000/svg" p-id="22632" xmlns:xlink="http://www.w3.org/1999/xlink" width="48" height="48"><path d="M91.60648601 687.60216199a48.29405401 48.29405401 0 0 1-15.49837801-35.42486499V179.891892A34.594595 34.594595 0 0 1 110.702703 145.297297h747.24324299a34.594595 34.594595 0 0 1 34.59459501 34.594595v214.624865l-41.513514-41.513514V186.810811h-733.40540501v465.366486a6.780541 6.780541 0 0 0 2.21405401 4.981622l132.704865 122.88c1.231568 1.134703 2.93362201 1.798919 4.704864 1.79891899h299.146379l41.513513 41.51351301H257.245405c-12.177297 0-23.89794601-4.56648601-32.934054-12.86918901l-132.70486501-122.88z" fill="#03b5f6" p-id="22633"></path><path d="M166.05405399 595.027027h41.51351401V235.243243h-41.51351399v359.783784z" fill="#03b5f6" p-id="22634"></path><path d="M579.54248599 666.388757L736.103784 822.936216a6.918919 6.918919 0 0 0-9.783352 0l53.220325-53.23416199a6.918919 6.918919 0 0 0 0 9.78335099L622.993297 622.93794599a6.918919 6.918919 0 0 0 9.783352 0l-53.23416301 53.23416201a6.918919 6.918919 0 0 0 0-9.783351z m-29.35005399 29.350054a34.594595 34.594595 0 0 1 0-48.91675701l53.220325-53.23416199a34.594595 34.594595 0 0 1 48.930594 0L808.904649 750.149189a34.594595 34.594595 0 0 1 0 48.91675699l-53.23416299 53.23416201a34.594595 34.594595 0 0 1-48.93059401 0L550.192432 695.738811z" fill="#03b5f6" p-id="22635"></path><path d="M579.57016199 666.361081L736.11762199 822.936216a6.918919 6.918919 0 0 0-9.78335198 0L961.176216 588.108108a6.918919 6.918919 0 0 0 0 9.783351L804.628757 441.316324a6.918919 6.918919 0 0 0 9.783351 0l-234.828108 234.828108a6.918919 6.918919 0 0 0 0-9.783351z m-29.363892 29.363892a34.594595 34.594595 0 0 1 0-48.93059499l234.828108-234.828108a34.594595 34.594595 0 0 1 48.93059501 0l156.56129699 156.54746a34.594595 34.594595 0 0 1 0 48.93059399l-234.828108 234.828108a34.594595 34.594595 0 0 1-48.93059399 0L550.192432 695.724973z" fill="#03b5f6" p-id="22636"></path></svg>
