<svg xmlns="http://www.w3.org/2000/svg" width="40.414" height="38.188" viewBox="0 0 40.414 38.188">
  <defs>
    <style>
      .cls-1 {
        fill: #cae4ff;
      }

      .cls-2 {
        fill: #0972e7;
      }

      .cls-3, .cls-5 {
        fill: none;
      }

      .cls-3 {
        stroke: #0972e7;
        stroke-width: 2px;
      }

      .cls-4 {
        stroke: none;
      }
    </style>
  </defs>
  <g id="_3.1_设置" data-name="3.1 设置" transform="translate(-101.122 -121.143)">
    <circle id="椭圆_2" data-name="椭圆 2" class="cls-1" cx="9.5" cy="9.5" r="9.5" transform="translate(112.122 131.143)"/>
    <path id="路径_20" data-name="路径 20" class="cls-2" d="M141.462,139.228c-.24-1.269-1.019-2.09-2.016-2.09h-.173a4.89,4.89,0,0,1-4.885-4.886,5.641,5.641,0,0,1,.424-1.861,2.641,2.641,0,0,0-.89-3.192l-5.055-2.815-.074-.036a2.983,2.983,0,0,0-3.15.628c-.546.563-2.427,2.168-3.862,2.168-1.454,0-3.34-1.637-3.888-2.21a2.969,2.969,0,0,0-3.145-.651l-5.235,2.868-.079.05a2.637,2.637,0,0,0-.894,3.185,5.558,5.558,0,0,1,.427,1.866,4.89,4.89,0,0,1-4.885,4.886h-.2c-.966,0-1.744.821-1.984,2.09a18.727,18.727,0,0,0,0,7.914c.24,1.27,1.018,2.091,2.015,2.091h.173a4.89,4.89,0,0,1,4.885,4.885,5.579,5.579,0,0,1-.426,1.861,2.639,2.639,0,0,0,.887,3.189l4.959,2.783.076.034a2.919,2.919,0,0,0,3.163-.663c.693-.749,2.57-2.3,3.948-2.3,1.494,0,3.418,1.74,3.973,2.351a2.879,2.879,0,0,0,2.1.9,2.663,2.663,0,0,0,1.057-.214l5.142-2.834.076-.049a2.636,2.636,0,0,0,.893-3.186,5.566,5.566,0,0,1-.427-1.867,4.89,4.89,0,0,1,4.885-4.885h.2c.967,0,1.747-.821,1.987-2.091a18.732,18.732,0,0,0,0-7.914m-2.508,3.959a21.332,21.332,0,0,1-.323,3.14,7.815,7.815,0,0,0-7.174,7.792,8.186,8.186,0,0,0,.56,2.765l-4.387,2.423a14.273,14.273,0,0,0-1.72-1.514,6.369,6.369,0,0,0-8.643-.029,13.259,13.259,0,0,0-1.711,1.486l-4.22-2.362a8.113,8.113,0,0,0,.561-2.768,7.814,7.814,0,0,0-7.172-7.792,15.375,15.375,0,0,1,0-6.282,7.814,7.814,0,0,0,7.172-7.792,8.193,8.193,0,0,0-.56-2.761l4.5-2.47a13.907,13.907,0,0,0,1.714,1.448,6.386,6.386,0,0,0,8.435.031,14.932,14.932,0,0,0,1.71-1.416l4.327,2.4a8.1,8.1,0,0,0-.561,2.765,7.814,7.814,0,0,0,7.174,7.792,21.463,21.463,0,0,1,.323,3.143" transform="translate(-0.349 -2.937)"/>
    <g id="椭圆_3" data-name="椭圆 3" class="cls-3" transform="translate(115.122 134.143)">
      <circle class="cls-4" cx="6.5" cy="6.5" r="6.5"/>
      <circle class="cls-5" cx="6.5" cy="6.5" r="5.5"/>
    </g>
  </g>
</svg>
