<?xml version="1.0" standalone="no"?><!DOCTYPE svg PUBLIC "-//W3C//DTD SVG 1.1//EN" "http://www.w3.org/Graphics/SVG/1.1/DTD/svg11.dtd"><svg t="1689039176248" class="icon" viewBox="0 0 1024 1024" version="1.1" xmlns="http://www.w3.org/2000/svg" p-id="2344" xmlns:xlink="http://www.w3.org/1999/xlink" width="200" height="200"><path d="M327.11168 85.33504A42.66496 42.66496 0 0 1 369.77664 128v14.22336h540.44672C973.06112 142.22336 1024 193.16224 1024 256v426.66496c0 62.83776-50.93888 113.77664-113.77664 113.77664H227.55328v128a42.66496 42.66496 0 0 1-85.32992 0V483.55328h-28.44672C50.93888 483.55328 0 432.6144 0 369.77664V128a42.66496 42.66496 0 0 1 85.32992 0v241.77664a28.4416 28.4416 0 0 0 25.11872 28.24704l3.328 0.19968H256a28.4416 28.4416 0 0 0 28.24704-25.11872l0.19968-3.328V128a42.66496 42.66496 0 0 1 42.66496-42.66496z m455.11168 796.4416a42.66496 42.66496 0 0 1 0 85.32992H355.55328a42.66496 42.66496 0 0 1 0-85.32992h426.67008z m128-654.22336H369.77664v142.22336c0 62.83776-50.93888 113.77664-113.77664 113.77664h-28.44672v227.55328h682.66496a28.4416 28.4416 0 0 0 28.24704-25.11872l0.19968-3.328V256a28.4416 28.4416 0 0 0-25.11872-28.24704l-3.32288-0.19968zM184.88832 56.88832a42.66496 42.66496 0 0 1 42.66496 42.66496v199.11168a42.66496 42.66496 0 0 1-85.32992 0V99.55328a42.66496 42.66496 0 0 1 42.66496-42.66496z" fill="#81FB6D" p-id="2345"></path></svg>