<?xml version="1.0" standalone="no"?><!DOCTYPE svg PUBLIC "-//W3C//DTD SVG 1.1//EN" "http://www.w3.org/Graphics/SVG/1.1/DTD/svg11.dtd"><svg t="1761016862659" class="icon" viewBox="0 0 1024 1024" version="1.1" xmlns="http://www.w3.org/2000/svg" p-id="16131" width="256" height="256" xmlns:xlink="http://www.w3.org/1999/xlink"><path d="M532.48 163.84h-40.96v143.36h40.96V163.84z" fill="#8a8a8a" p-id="16132"></path><path d="M512 317.44c172.032 0 317.44 120.832 351.232 286.72H160.768C194.56 438.272 339.968 317.44 512 317.44m0-30.72c-200.704 0-366.592 152.576-387.072 348.16h774.144c-20.48-195.584-186.368-348.16-387.072-348.16z" fill="#8a8a8a" p-id="16133"></path><path d="M714.752 634.88C699.392 733.184 614.4 808.96 512 808.96s-187.392-75.776-202.752-174.08h405.504m32.768-30.72H276.48c0 130.048 105.472 235.52 235.52 235.52s235.52-105.472 235.52-235.52z" fill="#8a8a8a" p-id="16134"></path></svg>
