<?xml version="1.0" standalone="no"?><!DOCTYPE svg PUBLIC "-//W3C//DTD SVG 1.1//EN" "http://www.w3.org/Graphics/SVG/1.1/DTD/svg11.dtd"><svg t="1761014874344" class="icon" viewBox="0 0 1024 1024" version="1.1" xmlns="http://www.w3.org/2000/svg" p-id="15795" width="48" height="48" xmlns:xlink="http://www.w3.org/1999/xlink"><path d="M532.48 102.4h-40.96v143.36h40.96V102.4z" fill="#8a8a8a" p-id="15796"></path><path d="M512 256c172.032 0 317.44 120.832 351.232 286.72H160.768C194.56 376.832 339.968 256 512 256m0-30.72c-200.704 0-366.592 152.576-387.072 348.16h774.144c-20.48-195.584-186.368-348.16-387.072-348.16z" fill="#8a8a8a" p-id="15797"></path><path d="M714.752 573.44C699.392 671.744 614.4 747.52 512 747.52s-187.392-75.776-202.752-174.08h405.504m32.768-30.72H276.48c0 130.048 105.472 235.52 235.52 235.52s235.52-105.472 235.52-235.52z" fill="#8a8a8a" p-id="15798"></path><path d="M532.48 829.44h-40.96v92.16h40.96v-92.16zM663.552 778.24l-32.768 23.552 52.224 75.776 33.792-23.552-53.248-75.776zM763.904 665.6l-23.552 33.792 75.776 52.224 23.552-32.768-75.776-53.248zM260.096 665.6L184.32 718.848l23.552 32.768 75.776-52.224-23.552-33.792zM360.448 778.24L307.2 854.016l33.792 23.552 52.224-75.776-32.768-23.552z" p-id="15799" fill="#8a8a8a"></path></svg>