<?xml version="1.0" standalone="no"?><!DOCTYPE svg PUBLIC "-//W3C//DTD SVG 1.1//EN" "http://www.w3.org/Graphics/SVG/1.1/DTD/svg11.dtd"><svg t="1751266131068" class="icon" viewBox="0 0 1024 1024" version="1.1" xmlns="http://www.w3.org/2000/svg" p-id="9212" width="256" height="256" xmlns:xlink="http://www.w3.org/1999/xlink"><path d="M901.306 731.759l18.832-4a29.943 29.943 0 0 1 12.474 58.573l-68.346 14.5a49.952 49.952 0 0 1-59.214-38.454L790.5 694.047a29.943 29.943 0 0 1 58.582-12.428l3.168 14.881A385.2 385.2 0 0 0 899 512c0-213.734-173.266-387-387-387a385.137 385.137 0 0 0-209.734 61.751c-0.6 0.459-1.194 0.92-1.835 1.339a29.984 29.984 0 0 1-32.867-50.159c0.1-0.065 0.2-0.113 0.3-0.176l-0.1-0.156A444.873 444.873 0 0 1 512 65c246.871 0 447 200.129 447 447a444.87 444.87 0 0 1-57.694 219.759zM586 677H316a50 50 0 0 1-50-50V397a50 50 0 0 1 50-50h270a50 50 0 0 1 50 50v36.731l70.088-40.465a38.452 38.452 0 0 1 19.728-5.257c0.062 0 0.122-0.009 0.184-0.009a29.851 29.851 0 0 1 10.2 1.818 27.552 27.552 0 0 1 13.559 9.916A29.836 29.836 0 0 1 756 418v187a29.852 29.852 0 0 1-3.548 14.148c-0.31 0.658-0.639 1.311-1.008 1.95-4.122 7.135-11.187 11.672-19.291 13.265-0.043 0.009-0.084 0.022-0.127 0.031-0.155 0.029-0.315 0.044-0.471 0.071A30.072 30.072 0 0 1 726 635h-0.079a38.6 38.6 0 0 1-19.671-5.271L636 589.2V627a50 50 0 0 1-50 50z m-10-250a20 20 0 0 0-20-20H346a20 20 0 0 0-20 20v170a20 20 0 0 0 20 20h210a20 20 0 0 0 20-20V427z m120 127.41v-86.038l-60 34.641v16.781zM512 899a385.155 385.155 0 0 0 211.454-62.854l0.255 0.391c0.291-0.206 0.56-0.431 0.86-0.628a29.985 29.985 0 1 1 28.651 52.427A444.842 444.842 0 0 1 512 959C265.129 959 65 758.871 65 512a444.866 444.866 0 0 1 57.779-219.91l-18.706 3.973a29.9 29.9 0 0 1-12.439-58.486l68.154-14.477a49.812 49.812 0 0 1 59.047 38.4l14.512 68.234a29.861 29.861 0 1 1-58.418 12.409l-3.129-14.728A385.188 385.188 0 0 0 125 512c0 213.734 173.266 387 387 387z" fill="#1296db" p-id="9213"></path></svg>