<?xml version="1.0" standalone="no"?><!DOCTYPE svg PUBLIC "-//W3C//DTD SVG 1.1//EN" "http://www.w3.org/Graphics/SVG/1.1/DTD/svg11.dtd"><svg t="1751965618899" class="icon" viewBox="0 0 1024 1024" version="1.1" xmlns="http://www.w3.org/2000/svg" p-id="12915" xmlns:xlink="http://www.w3.org/1999/xlink" width="48" height="48"><path d="M475.022222 941.511111c-11.377778 0-22.755556-5.688889-34.133333-14.222222l-139.377778-150.755556H145.066667c-39.822222 0-71.111111-34.133333-71.111111-73.955555V372.622222c0-39.822222 31.288889-73.955556 71.111111-73.955555h125.155555l170.666667-184.888889c11.377778-14.222222 31.288889-17.066667 48.355555-11.377778 17.066667 5.688889 28.444444 25.6 28.444445 45.511111v745.244445c0 19.911111-11.377778 36.977778-28.444445 45.511111-5.688889 0-8.533333 2.844444-14.222222 2.844444z m2.844445-51.2z m-332.8-540.444444c-11.377778 0-19.911111 11.377778-19.911111 22.755555v327.111111c0 14.222222 8.533333 22.755556 19.911111 22.755556H312.888889c5.688889 0 14.222222 2.844444 19.911111 8.533333l139.377778 147.911111V159.288889l-170.666667 182.044444c-5.688889 5.688889-11.377778 8.533333-19.911111 8.533334H145.066667zM648.533333 728.177778c-8.533333 0-14.222222-2.844444-19.911111-8.533334-8.533333-11.377778-8.533333-25.6 2.844445-36.977777 59.733333-51.2 91.022222-102.4 88.177777-153.6-2.844444-82.488889-85.333333-139.377778-85.333333-139.377778-11.377778-8.533333-14.222222-22.755556-5.688889-34.133333 8.533333-11.377778 22.755556-14.222222 34.133334-5.688889 2.844444 2.844444 102.4 73.955556 108.088888 179.2 2.844444 68.266667-34.133333 133.688889-105.244444 196.266666-5.688889 2.844444-11.377778 2.844444-17.066667 2.844445z" p-id="12916" fill="#8a8a8a"></path><path d="M759.466667 881.777778c-5.688889 0-14.222222-2.844444-19.911111-8.533334-8.533333-11.377778-8.533333-25.6 0-36.977777 116.622222-108.088889 170.666667-219.022222 164.977777-329.955556-11.377778-162.133333-159.288889-270.222222-162.133333-270.222222-11.377778-8.533333-14.222222-22.755556-5.688889-34.133333 8.533333-11.377778 22.755556-14.222222 34.133333-5.688889 5.688889 5.688889 170.666667 122.311111 182.044445 307.2 8.533333 125.155556-51.2 250.311111-179.2 369.777777 0 5.688889-8.533333 8.533333-14.222222 8.533334z" p-id="12917" fill="#8a8a8a"></path></svg>