<?xml version="1.0" standalone="no"?><!DOCTYPE svg PUBLIC "-//W3C//DTD SVG 1.1//EN" "http://www.w3.org/Graphics/SVG/1.1/DTD/svg11.dtd"><svg t="1751965428429" class="icon" viewBox="0 0 1024 1024" version="1.1" xmlns="http://www.w3.org/2000/svg" p-id="5528" xmlns:xlink="http://www.w3.org/1999/xlink" width="48" height="48"><path d="M472.63 295.8l47.69 47.81V152a10.45 10.45 0 0 0-17.57-7.68l-93.95 87.49 3.36 3.37zM135.39 76.28a41.87 41.87 0 0 0-59.14 59.29L286.14 346H85.4v268.32h200.73L482.37 797l20.38 19a10.45 10.45 0 0 0 17.57-7.68V580.76l163.44 163.85a276.14 276.14 0 0 1-79.8 13.1v83.85a358.4 358.4 0 0 0 144.39-32.2l138 138.36a41.76 41.76 0 0 0 59.15 0 42 42 0 0 0 0-59.29zM876.36 480a277 277 0 0 1-54.69 165.69l59.61 59.76A360.52 360.52 0 0 0 960 480c0-198.15-159-359-356-361.54v83.85C754.82 204.82 876.36 328.18 876.36 480z" fill="#999999" p-id="5529"></path><path d="M692.35 480a93.41 93.41 0 0 1-5.21 30.83l62.35 62.5A176.56 176.56 0 0 0 776 480c0-96.27-76.6-174.6-172-177.07v83.9A93.18 93.18 0 0 1 692.35 480z" fill="#999999" p-id="5530"></path></svg>